#!OML:ASF E:\Style4\Style4.ASF
:FULLY-SPECIFIED
:DEGREES
1484
root -0.105913 18.092 -0.846444 6.40728 -0.459278 2.59829
lowerback 2.91543 1.58614 -0.935388
upperback -2.19908 2.06074 -0.411158
thorax -3.9164 1.04521 -0.0290634
lowerneck 1.67793 -3.99438 -6.46281
upperneck 4.78739 -5.53908 4.69196
head 1.56834 -2.81729 2.5637
rclavicle -1.33683e-014 -4.37326e-015
rhumerus -92.6599 56.9165 -128.312
rradius 85.9176
rwrist -2.49873
rhand -5.92569 33.9089
rfingers 7.12502
rthumb 19.9038 4.90815
lclavicle -1.33683e-014 -4.37326e-015
lhumerus -30.164 12.1951 29.0157
lradius 115.875
lwrist -13.0777
lhand -13.499 34.653
lfingers 7.12502
lthumb 12.6121 64.2522
rfemur -9.66089 3.35475 15.6401
rtibia 21.6792
rfoot -17.3127 -16.822
rtoes -9.15676
lfemur -6.18942 -3.75855 -21.5243
ltibia 15.8926
lfoot -16.2486 10.3317
ltoes -12.7984
1485
root -0.105061 18.0751 -0.860985 6.36538 -0.416999 2.67053
lowerback 3.05244 1.55883 -0.944665
upperback -2.12237 2.01992 -0.483308
thorax -3.91184 1.02379 -0.0981846
lowerneck 1.76315 -3.96749 -6.51176
upperneck 4.84219 -5.50834 4.66684
head 1.57001 -2.80434 2.56621
rclavicle 2.49599e-014 -5.96354e-015
rhumerus -92.7417 56.8565 -128.411
rradius 85.898
rwrist -1.89616
rhand -6.79418 33.8962
rfingers 7.12502
rthumb 19.0688 4.81098
lclavicle 2.49599e-014 -5.96354e-015
lhumerus -30.1723 12.3088 29.0536
lradius 115.897
lwrist -13.1019
lhand -13.2984 34.4343
lfingers 7.12502
lthumb 12.8055 64.0215
rfemur -10.1205 3.05906 15.5491
rtibia 22.558
rfoot -17.7605 -16.5628
rtoes -8.92391
lfemur -6.65883 -3.76376 -21.5973
ltibia 16.7527
lfoot -16.5635 10.1967
ltoes -12.7809
1486
root -0.107725 18.0558 -0.878111 6.3272 -0.441514 2.83188
lowerback 3.21721 1.56059 -1.11186
upperback -2.05429 2.00923 -0.566426
thorax -3.93745 1.02151 -0.0932739
lowerneck 1.76388 -3.95169 -6.55085
upperneck 5.03832 -5.48943 4.61369
head 1.6318 -2.79735 2.55486
rclavicle -9.06955e-016 1.39149e-015
rhumerus -92.887 56.7932 -128.57
rradius 85.8618
rwrist -1.22529
rhand -7.75874 33.7579
rfingers 7.12502
rthumb 18.141 4.58389
lclavicle -9.06955e-016 1.39149e-015
lhumerus -30.1364 12.3744 29.1447
lradius 115.914
lwrist -13.1354
lhand -13.3118 34.5211
lfingers 7.12502
lthumb 12.7926 64.1092
rfemur -10.6451 2.85999 15.3677
rtibia 23.4832
rfoot -18.116 -16.3634
rtoes -8.94056
lfemur -7.20841 -3.67248 -21.7631
ltibia 17.7382
lfoot -16.948 10.0559
ltoes -12.851
1487
root -0.112072 18.0341 -0.900834 6.33044 -0.492752 2.90856
lowerback 3.35454 1.57214 -1.24262
upperback -1.96951 2.01498 -0.610042
thorax -3.93048 1.02684 -0.0680005
lowerneck 1.79019 -3.94337 -6.60952
upperneck 5.11529 -5.47885 4.55143
head 1.65132 -2.79463 2.54503
rclavicle -1.02126e-014 1.5704e-014
rhumerus -92.7964 56.8156 -128.551
rradius 85.8183
rwrist -0.991906
rhand -8.09872 33.6038
rfingers 7.12502
rthumb 17.8139 4.39973
lclavicle -1.02126e-014 1.5704e-014
lhumerus -30.1091 12.4691 29.2543
lradius 115.965
lwrist -13.1756
lhand -13.5318 34.5404
lfingers 7.12502
lthumb 12.5805 64.1417
rfemur -11.2678 2.6853 15.2786
rtibia 24.4541
rfoot -18.4667 -16.1305
rtoes -8.97057
lfemur -7.86528 -3.48618 -21.8244
ltibia 18.819
lfoot -17.3626 9.82365
ltoes -12.6636
1488
root -0.116506 18.0101 -0.925485 6.3453 -0.532816 2.82005
lowerback 3.51293 1.59079 -1.20585
upperback -1.87699 2.04017 -0.601514
thorax -3.92345 1.03808 -0.0845278
lowerneck 1.81077 -3.95215 -6.67503
upperneck 5.13901 -5.48719 4.4357
head 1.65398 -2.80178 2.51831
rclavicle 2.31087e-015 -1.39149e-014
rhumerus -92.5379 56.8981 -128.35
rradius 85.8361
rwrist -1.25728
rhand -7.5492 33.6752
rfingers 7.12502
rthumb 18.3426 4.51997
lclavicle 2.31087e-015 -1.39149e-014
lhumerus -30.1165 12.5878 29.4088
lradius 116.083
lwrist -13.3118
lhand -13.3207 34.4741
lfingers 7.12502
lthumb 12.784 64.0627
rfemur -11.94 2.49639 15.3751
rtibia 25.4879
rfoot -18.8217 -15.9196
rtoes -9.05773
lfemur -8.59549 -3.22384 -21.7045
ltibia 19.9847
lfoot -17.6939 9.57316
ltoes -13.0152
1489
root -0.119501 17.9835 -0.950015 6.35735 -0.551718 2.75657
lowerback 3.67463 1.60042 -1.16835
upperback -1.77338 2.05302 -0.606334
thorax -3.90614 1.04295 -0.11428
lowerneck 1.74929 -3.9437 -6.75632
upperneck 5.24731 -5.4708 4.35818
head 1.69915 -2.79618 2.50575
rclavicle -6.4605e-016 -4.77083e-015
rhumerus -92.2818 56.95 -128.141
rradius 85.8329
rwrist -1.3914
rhand -7.06914 33.891
rfingers 7.12502
rthumb 18.8043 4.77987
lclavicle -6.4605e-016 -4.77083e-015
lhumerus -30.125 12.6817 29.5371
lradius 116.225
lwrist -13.3819
lhand -13.172 34.709
lfingers 7.12502
lthumb 12.9273 64.2886
rfemur -12.6295 2.21464 15.4379
rtibia 26.5505
rfoot -19.2269 -15.6637
rtoes -9.10109
lfemur -9.39311 -2.97223 -21.613
ltibia 21.2678
lfoot -18.093 9.24769
ltoes -12.8753
